<svg width="128" height="27" viewBox="0 0 128 27" fill="none" xmlns="http://www.w3.org/2000/svg">
<g clip-path="url(#clip0_761_261)">
<path d="M45.2443 6.20551C44.9419 6.17751 44.6367 6.16071 44.3175 6.16071C41.9599 6.16071 39.9495 7.00071 38.2723 8.66391C36.6091 10.3271 35.7859 12.3375 35.7859 14.7091V25.6879H34.1955V14.7091C34.1815 11.9035 35.1643 9.50111 37.1467 7.52151C39.1291 5.55591 41.5147 4.57031 44.3063 4.57031C44.6255 4.57031 44.9419 4.58431 45.2471 4.61511V6.20551H45.2443Z" fill="#C44558"/>
<path d="M58.3824 6.44679V15.7176C58.3824 18.0892 59.2056 20.0996 60.8688 21.7628C62.546 23.426 64.5564 24.266 66.914 24.266C67.2332 24.266 67.5356 24.252 67.8408 24.2212V25.8116C67.5384 25.8396 67.2192 25.8564 66.9 25.8564C64.1084 25.8564 61.7228 24.8736 59.7404 22.9052C57.758 20.9228 56.7752 18.5232 56.7892 15.7176V2.36719H58.3796V4.85359H67.838V6.44399H58.3824V6.44679Z" fill="#C44558"/>
<path d="M74.7925 9.66142C75.1817 8.98102 75.6325 8.34543 76.1673 7.75183C78.0041 5.68263 80.2161 4.64103 82.8061 4.64103C85.3961 4.64103 87.6221 5.68262 89.4589 7.76583C91.2957 9.83502 92.2365 12.3494 92.2645 15.2866V25.613H90.8029V15.2866C90.7749 12.8002 89.9797 10.6722 88.4313 8.92222C86.8829 7.17223 85.0041 6.29023 82.8201 6.29023C80.6361 6.29023 78.7573 7.15823 77.1949 8.90823C75.6465 10.6582 74.8513 12.7694 74.8093 15.2418V25.613H73.3477V0.390625H74.7953V9.66142H74.7925Z" fill="#C44558"/>
<path d="M127.525 25.6165H126.078V12.3249C126.05 10.6029 125.411 9.12733 124.168 7.91213C122.911 6.68293 121.421 6.07533 119.671 6.07533C117.921 6.07533 116.432 6.68293 115.175 7.91213C113.931 9.12733 113.296 10.6029 113.265 12.3249V25.6165H111.803V12.3249C111.775 10.6029 111.137 9.12733 109.894 7.91213C108.651 6.68293 107.147 6.07533 105.397 6.07533C103.647 6.07533 102.157 6.68293 100.914 7.91213C99.657 9.12733 99.0186 10.6029 99.0046 12.3249V25.6165H97.543V12.3249C97.571 10.1997 98.3522 8.37693 99.8866 6.88733C101.421 5.39773 103.258 4.64453 105.397 4.64453C106.959 4.64453 108.39 5.06453 109.692 5.90173C110.949 6.72493 111.904 7.81133 112.543 9.16933C113.164 7.80853 114.119 6.72493 115.393 5.90173C116.695 5.06173 118.126 4.64453 119.674 4.64453C121.83 4.64453 123.681 5.39773 125.213 6.88733C126.744 8.40493 127.511 10.2277 127.525 12.3697V25.6165Z" fill="#C44558"/>
<path d="M8.2848 16.348C7.76582 16.348 7.32049 16.1622 6.94879 15.7905C6.57709 15.4188 6.39124 14.9734 6.39124 14.4544C6.39124 13.9355 6.57709 13.4901 6.94879 13.1184C7.32049 12.7467 7.76582 12.5609 8.2848 12.5609C8.80377 12.5609 9.24911 12.7467 9.62081 13.1184C9.99251 13.4901 10.1784 13.9355 10.1784 14.4544C10.1784 14.7981 10.0907 15.1137 9.91536 15.4012C9.74705 15.6888 9.51912 15.9202 9.23158 16.0955C8.95105 16.2638 8.63546 16.348 8.2848 16.348Z" fill="#C44558"/>
<path d="M12.3825 16.348C11.8635 16.348 11.4181 16.1622 11.0464 15.7905C10.6747 15.4188 10.4889 14.9734 10.4889 14.4544C10.4889 13.9355 10.6747 13.4901 11.0464 13.1184C11.4181 12.7467 11.8635 12.5609 12.3825 12.5609C12.9014 12.5609 13.3468 12.7467 13.7185 13.1184C14.0902 13.4901 14.276 13.9355 14.276 14.4544C14.276 14.7981 14.1883 15.1137 14.013 15.4012C13.8447 15.6888 13.6168 15.9202 13.3292 16.0955C13.0487 16.2638 12.7331 16.348 12.3825 16.348Z" fill="#C44558"/>
<path d="M16.4957 16.348C15.9768 16.348 15.5314 16.1622 15.1597 15.7905C14.788 15.4188 14.6022 14.9734 14.6022 14.4544C14.6022 13.9355 14.788 13.4901 15.1597 13.1184C15.5314 12.7467 15.9768 12.5609 16.4957 12.5609C17.0147 12.5609 17.46 12.7467 17.8317 13.1184C18.2034 13.4901 18.3893 13.9355 18.3893 14.4544C18.3893 14.7981 18.3016 15.1137 18.1263 15.4012C17.958 15.6888 17.7301 15.9202 17.4425 16.0955C17.162 16.2638 16.8464 16.348 16.4957 16.348Z" fill="#C44558"/>
<path d="M11.1157 24.2841C11.1549 24.2841 11.1941 24.2812 11.2333 24.2812H11.0625C11.0793 24.284 11.0961 24.2841 11.1157 24.2841Z" fill="#C44558"/>
<path d="M18.6654 7.59355C16.5822 5.51035 14.065 4.46875 11.1306 4.46875C8.19623 4.46875 5.67903 5.51035 3.59583 7.59355C1.51263 9.67675 0.471031 12.194 0.457031 15.1284C0.457031 18.0655 1.49863 20.58 3.58183 22.6632C5.66223 24.7464 8.17943 25.788 11.1166 25.788C14.0538 25.788 21.7762 25.7096 21.7762 25.7096V15.1284C21.7902 12.194 20.7486 9.67675 18.6654 7.59355ZM17.5958 21.6075C17.355 21.8456 17.1058 22.0695 16.851 22.2768L18.7158 24.2199L11.2314 24.2816C11.1922 24.2816 11.153 24.2844 11.1138 24.2844C11.097 24.2844 11.0774 24.2844 11.0606 24.2844H11.0494C8.54623 24.2676 6.41263 23.3743 4.63463 21.6103C2.85663 19.8156 1.96063 17.6595 1.96063 15.1284C1.96063 12.5971 2.85663 10.4411 4.63743 8.64915C6.42943 6.87115 8.58543 5.97235 11.1166 5.97235C13.6478 5.97235 15.8038 6.86835 17.5958 8.64915C19.3738 10.4411 20.2726 12.5971 20.2726 15.1284C20.2698 17.6595 19.3738 19.8155 17.5958 21.6075Z" fill="#C44558"/>
<path d="M51.3613 7.21875H49.8438V25.6287H51.3613V7.21875Z" fill="#C44558"/>
<path d="M51.3613 4.87109H49.8438V6.05829H51.3613V4.87109Z" fill="#C44558"/>
<path d="M28.5879 4.87109H27.0703V6.05829H28.5879V4.87109Z" fill="#C44558"/>
<path d="M28.5879 7.21875H27.0703V25.6287H28.5879V7.21875Z" fill="#C44558"/>
</g>
<defs>
<clipPath id="clip0_761_261">
<rect width="127.982" height="26.25" fill="white"/>
</clipPath>
</defs>
</svg>
